<?xml version="1.0" ?><!DOCTYPE svg  PUBLIC '-//W3C//DTD SVG 1.1//EN'  'http://www.w3.org/Graphics/SVG/1.1/DTD/svg11.dtd'><svg height="8.4666mm" style="shape-rendering:geometricPrecision; text-rendering:geometricPrecision; image-rendering:optimizeQuality; fill-rule:evenodd; clip-rule:evenodd" version="1.1" viewBox="0 0 846.66 846.66" width="8.4666mm" xml:space="preserve" xmlns="http://www.w3.org/2000/svg" xmlns:xlink="http://www.w3.org/1999/xlink"><defs><style type="text/css">
   <![CDATA[
    .fil0 {fill:white;fill-rule:nonzero}
   ]]>
  </style></defs><g id="Layer_x0020_1"><path class="fil0" d="M157.68 71.06l531.31 0c80.75,0 146.74,65.99 146.74,146.75l0 289.71c0,80.76 -65.99,146.75 -146.74,146.75l-131.79 0 0 80.07 134.07 0c27.14,0 27.14,41.26 0,41.26 -178.63,0 -357.25,0 -535.88,0 -27.13,0 -27.13,-41.26 0,-41.26l134.07 0 0 -80.07 -131.78 0c-80.76,0 -146.75,-65.99 -146.75,-146.75l0 -289.71c0,-80.76 65.99,-146.75 146.75,-146.75zm44.35 305.11c-23.4,13.55 -44.03,-22.07 -20.63,-35.62l254.8 -147.42 -14.9 -7c-24.48,-11.44 -7.08,-48.68 17.41,-37.23l49.57 23.27c15.65,6.32 17.54,28.22 2.59,36.88l-288.84 167.12zm413.17 151.98c0,27.14 -41.26,27.14 -41.26,0l0 -288.43c0,-27.13 41.26,-27.13 41.26,0l0 288.43zm-114.16 0c0,27.14 -41.26,27.14 -41.26,0l0 -237.91c0,-27.13 41.26,-27.13 41.26,0l0 237.91zm-114.16 0c0,27.14 -41.26,27.14 -41.26,0l0 -167.23c0,-27.14 41.26,-27.14 41.26,0l0 167.23zm-114.16 0c0,27.14 -41.26,27.14 -41.26,0l0 -83.61c0,-27.14 41.26,-27.14 41.26,0l0 83.61zm243.22 126.12l-185.22 0 0 80.07 185.22 0 0 -80.07zm173.05 -541.95l-531.31 0c-57.98,0 -105.49,47.51 -105.49,105.49l0 289.71c0,57.98 47.51,105.49 105.49,105.49 177.1,0 354.2,0 531.31,0 57.97,0 105.48,-47.51 105.48,-105.49l0 -289.71c0,-57.97 -47.51,-105.49 -105.48,-105.49z"/></g></svg>
